<svg width="24" height="24" viewBox="0 0 24 24" fill="none" xmlns="http://www.w3.org/2000/svg">
<path d="M19 12C19 8.13401 15.866 5 12 5C8.13401 5 5 8.13401 5 12C5 15.866 8.13401 19 12 19V20C7.58172 20 4 16.4183 4 12C4 7.58172 7.58172 4 12 4C16.4183 4 20 7.58172 20 12C20 16.4183 16.4183 20 12 20V19C15.866 19 19 15.866 19 12Z" fill="black"/>
<path d="M10 16V15.2731L11.2467 15.1115V10.6519L10 10.4904V9.75769H12.7533V15.1115L14 15.2731V16H10ZM11.1702 8.21731V7H12.7533V8.21731H11.1702Z" fill="black"/>
</svg>
