<svg width="40" height="40" viewBox="0 0 40 40" fill="none" xmlns="http://www.w3.org/2000/svg">
<path d="M10.572 10.9053C15.0541 6.42324 21.9333 5.79919 27.0829 9.03322C28.2607 8.08903 29.9857 8.16301 31.078 9.2549C32.1702 10.3471 32.244 12.0721 31.2997 13.25C34.534 18.3995 33.9108 25.2795 29.4286 29.7616C24.2216 34.9685 15.7791 34.9684 10.572 29.7616C5.4463 24.6359 5.36613 16.3749 10.3318 11.1514L10.572 10.9053ZM26.409 9.79201C21.662 6.90086 15.3836 7.50778 11.2791 11.6123C6.46257 16.4287 6.46257 24.2381 11.2791 29.0546C16.0203 33.7956 23.6612 33.8692 28.493 29.2762L28.7215 29.0546C32.8261 24.95 33.4321 18.6718 30.5409 13.9248C29.3833 14.6457 27.8415 14.5036 26.8358 13.498C25.83 12.4922 25.6879 10.9496 26.409 9.79201ZM14.9041 15.0586C17.7187 12.2442 22.282 12.2441 25.0965 15.0586C27.9111 17.8731 27.911 22.4363 25.0965 25.2509L24.828 25.5067C22.09 27.9807 17.9107 27.9806 15.1726 25.5067L14.9041 25.2509C12.1774 22.5242 12.0918 18.1563 14.6482 15.3271L14.9041 15.0586ZM24.3895 15.7656C21.9655 13.3416 18.0352 13.3417 15.6111 15.7656C13.1871 18.1896 13.1871 22.1198 15.6111 24.5439C18.0352 26.9679 21.9654 26.9679 24.3895 24.5439C26.8134 22.1198 26.8135 18.1896 24.3895 15.7656ZM30.6073 9.72658C29.8103 8.92958 28.5793 8.82958 27.6737 9.42677C27.5441 9.51225 27.4216 9.61254 27.3075 9.72658C27.1756 9.85841 27.0623 10.0022 26.9686 10.1543C26.4149 11.0535 26.5281 12.247 27.3075 13.0264C28.0867 13.8054 29.2795 13.9186 30.1786 13.3652C30.3308 13.2715 30.4754 13.1583 30.6073 13.0264C30.7214 12.9122 30.8206 12.7888 30.9061 12.6592C31.4661 11.8101 31.4136 10.6761 30.7479 9.88087L30.6073 9.72658Z" fill="black"/>
</svg>
