<svg width="24" height="24" viewBox="0 0 24 24" fill="none" xmlns="http://www.w3.org/2000/svg">
<path d="M20 12.75C20.4142 12.75 20.75 12.4142 20.75 12C20.75 11.5858 20.4142 11.25 20 11.25V12.75ZM4.46967 11.4697C4.17678 11.7626 4.17678 12.2374 4.46967 12.5303L9.24264 17.3033C9.53553 17.5962 10.0104 17.5962 10.3033 17.3033C10.5962 17.0104 10.5962 16.5355 10.3033 16.2426L6.06066 12L10.3033 7.75736C10.5962 7.46447 10.5962 6.98959 10.3033 6.6967C10.0104 6.40381 9.53553 6.40381 9.24264 6.6967L4.46967 11.4697ZM20 12V11.25L5 11.25V12V12.75L20 12.75V12Z" fill="black"/>
</svg>
