<svg width="40" height="40" viewBox="0 0 40 40" fill="none" xmlns="http://www.w3.org/2000/svg">
<path d="M30 31V32H10V31H30ZM31 30V26C31 25.4477 30.5523 25 30 25H10C9.44772 25 9 25.4477 9 26V30C9 30.5523 9.44772 31 10 31V32L9.7959 31.9893C8.78722 31.887 8 31.0357 8 30V26C8 24.9643 8.78722 24.113 9.7959 24.0107L10 24H30L30.2041 24.0107C31.2128 24.113 32 24.9643 32 26V30L31.9893 30.2041C31.8938 31.1457 31.1457 31.8938 30.2041 31.9893L30 32V31C30.5523 31 31 30.5523 31 30Z" fill="black"/>
<path d="M11 20V18.4004H12V20C12 20.5523 12.4477 21 13 21V22L12.7959 21.9893C11.8543 21.8938 11.1062 21.1457 11.0107 20.2041L11 20ZM14.8662 21V22H13V21H14.8662ZM19.5332 21V22H15.7998V21H19.5332ZM24.2002 21V22H20.4668V21H24.2002ZM27 21V22H25.1338V21H27ZM28.9893 20.2041C28.8938 21.1457 28.1457 21.8938 27.2041 21.9893L27 22V21C27.5523 21 28 20.5523 28 20V18.4004H29V20L28.9893 20.2041ZM12 14.4004V17.5996H11V14.4004H12ZM29 14.4004V17.5996H28V14.4004H29ZM11 12C11 10.9643 11.7872 10.113 12.7959 10.0107L13 10H14.8662V11H13C12.4477 11 12 11.4477 12 12V13.5996H11V12ZM29 13.5996H28V12C28 11.4823 27.6067 11.0562 27.1025 11.0049L27 11H25.1338V10H27L27.2041 10.0107C28.2128 10.113 29 10.9643 29 12V13.5996ZM19.5332 10V11H15.7998V10H19.5332ZM24.2002 10V11H20.4668V10H24.2002Z" fill="black"/>
</svg>
