<svg width="24" height="24" viewBox="0 0 24 24" fill="none" xmlns="http://www.w3.org/2000/svg">
<path d="M11 15V16H7V15H11ZM11 12H7V16C6.48232 16 6.05621 15.6067 6.00488 15.1025L6 15V12C6 11.4477 6.44772 11 7 11H11L11.1025 11.0049C11.6067 11.0562 12 11.4823 12 12V15C12 15.5177 11.6067 15.9438 11.1025 15.9951L11 16V12Z" fill="black"/>
<path d="M14 20V21H10V20H14ZM14 17H10V21C9.48232 21 9.05621 20.6067 9.00488 20.1025L9 20V17C9 16.4477 9.44772 16 10 16H14L14.1025 16.0049C14.6067 16.0562 15 16.4823 15 17V20C15 20.5177 14.6067 20.9438 14.1025 20.9951L14 21V17Z" fill="black"/>
<path d="M8 20V21H4V20H8ZM8 17H4V21C3.48232 21 3.05621 20.6067 3.00488 20.1025L3 20V17C3 16.4477 3.44772 16 4 16H8L8.10254 16.0049C8.60667 16.0562 9 16.4823 9 17V20C9 20.5177 8.60667 20.9438 8.10254 20.9951L8 21V17Z" fill="black"/>
<path d="M20 20V21H16V20H20ZM20 17H16V21C15.4823 21 15.0562 20.6067 15.0049 20.1025L15 20V17C15 16.4477 15.4477 16 16 16H20L20.1025 16.0049C20.6067 16.0562 21 16.4823 21 17V20C21 20.5177 20.6067 20.9438 20.1025 20.9951L20 21V17Z" fill="black"/>
<path d="M17 15V16H13V15H17ZM17 12H13V16C12.4823 16 12.0562 15.6067 12.0049 15.1025L12 15V12C12 11.4477 12.4477 11 13 11H17L17.1025 11.0049C17.6067 11.0562 18 11.4823 18 12V15C18 15.5177 17.6067 15.9438 17.1025 15.9951L17 16V12Z" fill="black"/>
<path d="M13.8649 8.12253L14.1237 9.08845L10.26 10.1237L10.0012 9.1578L13.8649 8.12253ZM13.0884 5.22475L9.22474 6.26002L10.26 10.1237C9.75998 10.2577 9.24659 9.98807 9.06653 9.5144L9.03528 9.41662L8.25882 6.51884C8.11588 5.98538 8.43246 5.43704 8.96593 5.2941L12.8296 4.25882L12.9299 4.237C13.4302 4.1561 13.9204 4.46589 14.0544 4.96593L14.8308 7.86371C14.9648 8.36374 14.6952 8.87713 14.2215 9.0572L14.1237 9.08845L13.0884 5.22475Z" fill="black"/>
</svg>
