<svg width="40" height="40" viewBox="0 0 40 40" fill="none" xmlns="http://www.w3.org/2000/svg">
<path d="M31 30.5V32H22V30.5H31ZM32.5 29V11C32.5 10.1716 31.8284 9.5 31 9.5H22C21.1716 9.5 20.5 10.1716 20.5 11V29C20.5 29.8284 21.1716 30.5 22 30.5V32L21.8457 31.9961C20.2606 31.9158 19 30.6051 19 29V11C19 9.39489 20.2606 8.08421 21.8457 8.00391L22 8H31L31.1543 8.00391C32.7394 8.08421 34 9.39489 34 11V29C34 30.6051 32.7394 31.9158 31.1543 31.9961L31 32V30.5C31.8284 30.5 32.5 29.8284 32.5 29Z" fill="black"/>
<path d="M25.5 21L27 21L27 29L25.5 29L25.5 21ZM24 19.5L10 19.5C9.17157 19.5 8.5 20.1716 8.5 21L8.5 29C8.5 29.8284 9.17157 30.5 10 30.5L24 30.5C24.8284 30.5 25.5 29.8284 25.5 29L27 29L26.9961 29.1543C26.9184 30.6883 25.6883 31.9184 24.1543 31.9961L24 32L10 32C8.39489 32 7.08421 30.7394 7.00391 29.1543L7 29L7 21L7.00391 20.8457C7.08421 19.2606 8.39489 18 10 18L24 18L24.1543 18.0039C25.6883 18.0816 26.9184 19.3117 26.9961 20.8457L27 21L25.5 21C25.5 20.1716 24.8284 19.5 24 19.5Z" fill="black"/>
</svg>
