<svg width="24" height="24" viewBox="0 0 24 24" fill="none" xmlns="http://www.w3.org/2000/svg">
<path d="M19 12C19 8.13401 15.866 5 12 5C8.13401 5 5 8.13401 5 12C5 15.866 8.13401 19 12 19V20C7.58172 20 4 16.4183 4 12C4 7.58172 7.58172 4 12 4C16.4183 4 20 7.58172 20 12C20 16.4183 16.4183 20 12 20V19C15.866 19 19 15.866 19 12Z" fill="black"/>
<path d="M15.5859 8.7207C15.7404 8.4919 16.0504 8.43157 16.2793 8.58594C16.5081 8.74042 16.5684 9.05045 16.4141 9.2793L12.4287 15.1826C11.8717 16.0076 10.6807 16.0714 10.0391 15.3105L7.61719 12.4375C7.43956 12.2264 7.46686 11.9113 7.67773 11.7334C7.88889 11.5554 8.20485 11.5818 8.38281 11.793L10.8037 14.666C11.0176 14.9194 11.414 14.898 11.5996 14.623L15.5859 8.7207Z" fill="black"/>
</svg>
