<svg width="24" height="24" viewBox="0 0 24 24" fill="none" xmlns="http://www.w3.org/2000/svg">
<path d="M16.6467 6.64614C16.842 6.45119 17.1587 6.45098 17.3538 6.64614C17.549 6.8413 17.5488 7.15796 17.3538 7.35324L7.35353 17.3536C7.15826 17.5488 6.84168 17.5488 6.64642 17.3536C6.45116 17.1583 6.45116 16.8417 6.64642 16.6465L16.6467 6.64614Z" fill="black"/>
<path d="M7.35321 6.64614C7.15793 6.45119 6.84127 6.45098 6.64611 6.64614C6.45095 6.8413 6.45116 7.15796 6.64611 7.35324L16.6464 17.3536C16.8417 17.5488 17.1583 17.5488 17.3535 17.3536C17.5488 17.1583 17.5488 16.8417 17.3535 16.6465L7.35321 6.64614Z" fill="black"/>
</svg>
