<svg width="24" height="24" viewBox="0 0 24 24" fill="none" xmlns="http://www.w3.org/2000/svg">
<path d="M4 18.5V12.5C4 11.1193 5.11929 10 6.5 10H7.75C8.02614 10 8.25 10.2239 8.25 10.5C8.25 10.7761 8.02614 11 7.75 11H6.5C5.67157 11 5 11.6716 5 12.5V18.5C5 19.3284 5.67157 20 6.5 20H12.5C13.3284 20 14 19.3284 14 18.5V17.25C14 16.9739 14.2239 16.75 14.5 16.75C14.7761 16.75 15 16.9739 15 17.25V18.5C15 19.8807 13.8807 21 12.5 21H6.5C5.11929 21 4 19.8807 4 18.5Z" fill="black"/>
<path d="M20 6.5C20 5.67157 19.3284 5 18.5 5H12.5C11.6716 5 11 5.67157 11 6.5V12.5C11 13.3284 11.6716 14 12.5 14H18.5C19.3284 14 20 13.3284 20 12.5V6.5ZM21 12.5C21 13.8807 19.8807 15 18.5 15H12.5C11.1193 15 10 13.8807 10 12.5V6.5C10 5.11929 11.1193 4 12.5 4H18.5C19.8807 4 21 5.11929 21 6.5V12.5Z" fill="black"/>
</svg>
