<svg width="40" height="40" viewBox="0 0 40 40" fill="none" xmlns="http://www.w3.org/2000/svg">
<path d="M32 30.5L32 32L8 32L8 30.5L32 30.5Z" fill="black"/>
<path d="M25.4857 9.51807L14.5143 9.51807C13.9226 9.51807 13.4363 10.0158 13.3777 10.6537L13.3714 10.7831L13.3714 29L12 29L12 10.7831L12.0134 10.4985C12.1422 9.09514 13.2125 7.99999 14.5143 7.99999L25.4857 7.99999C26.8743 7.99999 28 9.24604 28 10.7831L28 29L26.6286 29L26.6286 10.7831C26.6286 10.0845 26.1169 9.51807 25.4857 9.51807Z" fill="black"/>
<path d="M17 20C17 20.5523 16.5523 21 16 21C15.4477 21 15 20.5523 15 20C15 19.4477 15.4477 19 16 19C16.5523 19 17 19.4477 17 20Z" fill="black"/>
</svg>
