<svg width="24" height="24" viewBox="0 0 24 24" fill="none" xmlns="http://www.w3.org/2000/svg">
<path d="M10.3155 6C11.0641 4.66667 12.9361 4.66667 13.6847 6L18.7365 15C19.4616 16.2916 18.6067 17.896 17.1915 17.9951L17.0529 18V17C17.8013 16.9999 18.2692 16.1666 17.8951 15.5L12.8424 6.5C12.4681 5.83334 11.5321 5.83333 11.1578 6.5L6.10507 15.5C5.73097 16.1666 6.19895 16.9999 6.94735 17V18C5.49713 17.9999 4.57397 16.4359 5.19821 15.126L5.26374 15L10.3155 6ZM17.0529 17V18H6.94735V17H17.0529Z" fill="black"/>
<path d="M12.4702 8.72727L12.4011 13.9545H11.6L11.5309 8.72727H12.4702ZM12.0005 16.0568C11.8302 16.0568 11.684 15.9941 11.562 15.8686C11.44 15.7431 11.379 15.5928 11.379 15.4176C11.379 15.2424 11.44 15.0921 11.562 14.9666C11.684 14.8411 11.8302 14.7784 12.0005 14.7784C12.1709 14.7784 12.3171 14.8411 12.4391 14.9666C12.5611 15.0921 12.6221 15.2424 12.6221 15.4176C12.6221 15.5336 12.5933 15.6402 12.5358 15.7372C12.4805 15.8343 12.4057 15.9124 12.3113 15.9716C12.2192 16.0284 12.1156 16.0568 12.0005 16.0568Z" fill="black"/>
</svg>
