<svg width="24" height="24" viewBox="0 0 24 24" fill="none" xmlns="http://www.w3.org/2000/svg">
<path d="M8.84536 18.0855V20.3114L12 18.7026L15.1547 20.3114V18.0855L16.4165 17.5221V20.6207C16.4165 21.3677 15.6273 21.851 14.962 21.5115L12 20L9.03802 21.5115C8.37267 21.851 7.5835 21.3677 7.5835 20.6207V17.5221L8.84536 18.0855Z" fill="black"/>
<path d="M19 10C19 6.13401 15.866 3 12 3C8.13401 3 5 6.13401 5 10C5 13.866 8.13401 17 12 17V18C7.58172 18 4 14.4183 4 10C4 5.58172 7.58172 2 12 2C16.4183 2 20 5.58172 20 10C20 14.4183 16.4183 18 12 18V17C15.866 17 19 13.866 19 10Z" fill="black"/>
<path d="M13.734 7.6134L16.0293 8.25272C16.3739 8.3487 16.5092 8.76499 16.2868 9.0452L14.8056 10.9116L14.9069 13.2922C14.9221 13.6496 14.568 13.9069 14.2328 13.782L12 12.95L9.76723 13.782C9.43201 13.9069 9.0779 13.6496 9.09311 13.2922L9.19438 10.9116L7.71318 9.0452C7.4908 8.76499 7.62606 8.3487 7.97067 8.25272L10.266 7.6134L11.5834 5.62794C11.7811 5.32985 12.2189 5.32985 12.4166 5.62794L13.734 7.6134ZM10.8936 8.47656L10.5342 8.57715L8.96484 9.01367L10.209 10.582L10.124 12.5811L12 11.8828L13.875 12.5811L13.791 10.582L15.0342 9.01367L13.4658 8.57715L13.1064 8.47656L12 6.80762L10.8936 8.47656Z" fill="black"/>
</svg>
