<svg width="40" height="40" viewBox="0 0 40 40" fill="none" xmlns="http://www.w3.org/2000/svg">
<path d="M27.7538 28.04C26.9218 28.04 26.2658 27.864 25.7858 27.512C25.3058 27.16 24.9698 26.68 24.7778 26.072C24.5858 25.464 24.4898 24.784 24.4898 24.032V16.952H22.6178C22.4578 16.952 22.3298 16.904 22.2338 16.808C22.1378 16.712 22.0898 16.584 22.0898 16.424V16.088C22.0898 15.928 22.1378 15.8 22.2338 15.704C22.3298 15.608 22.4578 15.56 22.6178 15.56H24.4898V11.528C24.4898 11.368 24.5378 11.24 24.6338 11.144C24.7298 11.048 24.8578 11 25.0178 11H25.4258C25.5858 11 25.7138 11.048 25.8098 11.144C25.9058 11.24 25.9538 11.368 25.9538 11.528V15.56H28.9298C29.0898 15.56 29.2178 15.608 29.3138 15.704C29.4098 15.8 29.4578 15.928 29.4578 16.088V16.424C29.4578 16.584 29.4098 16.712 29.3138 16.808C29.2178 16.904 29.0898 16.952 28.9298 16.952H25.9538V23.936C25.9538 24.784 26.0898 25.448 26.3618 25.928C26.6498 26.408 27.1538 26.648 27.8738 26.648H29.1698C29.3298 26.648 29.4578 26.696 29.5538 26.792C29.6498 26.888 29.6978 27.016 29.6978 27.176V27.512C29.6978 27.672 29.6498 27.8 29.5538 27.896C29.4578 27.992 29.3298 28.04 29.1698 28.04H27.7538Z" fill="black"/>
<path d="M15.808 28.04C15.648 28.04 15.52 27.992 15.424 27.896C15.328 27.8 15.28 27.672 15.28 27.512V12.68H10.528C10.368 12.68 10.24 12.632 10.144 12.536C10.048 12.44 10 12.312 10 12.152V11.792C10 11.616 10.048 11.48 10.144 11.384C10.24 11.288 10.368 11.24 10.528 11.24H21.52C21.696 11.24 21.832 11.288 21.928 11.384C22.024 11.48 22.072 11.616 22.072 11.792V12.152C22.072 12.312 22.024 12.44 21.928 12.536C21.832 12.632 21.696 12.68 21.52 12.68H16.792V27.512C16.792 27.672 16.744 27.8 16.648 27.896C16.552 27.992 16.416 28.04 16.24 28.04H15.808Z" fill="black"/>
</svg>
