<svg width="24" height="24" viewBox="0 0 24 24" fill="none" xmlns="http://www.w3.org/2000/svg">
<path d="M5.2989 17.2624V12.8822H6.35597V17.2624C6.35597 18.1695 7.06593 18.9049 7.94156 18.905H16.3981C17.2738 18.905 17.9837 18.1696 17.9837 17.2624V12.8822H19.0407V17.2624C19.0407 18.7743 17.8576 20 16.3981 20H7.94156C6.48213 19.9999 5.2989 18.7743 5.2989 17.2624ZM11.0642 4.43842C11.6892 3.83764 12.6611 3.8566 13.264 4.48119L21 12.4951L20.2526 13.2693L12.5167 5.25542C12.3156 5.04718 11.991 5.04112 11.7827 5.24152L7.7733 9.09876L3.74738 13.2693L3 12.4951L6.8845 8.47104V5.21692H7.94156V7.4423L11.0642 4.43842Z" fill="black"/>
</svg>
