<svg width="40" height="40" viewBox="0 0 40 40" fill="none" xmlns="http://www.w3.org/2000/svg">
<path d="M21.875 26.75V28.25H18.125V26.75H21.875ZM17.8584 18.4604L15.9834 22.2104L14.6416 21.5396L16.5166 17.7896L17.8584 18.4604ZM25.3584 21.5396L24.0166 22.2104L22.1416 18.4604L23.4834 17.7896L25.3584 21.5396Z" fill="black"/>
<path d="M23 12.5C23 10.8431 21.6569 9.5 20 9.5C18.3431 9.5 17 10.8431 17 12.5C17 14.1569 18.3431 15.5 20 15.5V17C17.5147 17 15.5 14.9853 15.5 12.5C15.5 10.0147 17.5147 8 20 8C22.4853 8 24.5 10.0147 24.5 12.5C24.5 14.9853 22.4853 17 20 17V15.5C21.6569 15.5 23 14.1569 23 12.5Z" fill="black"/>
<path d="M30.5 27.5C30.5 25.8431 29.1569 24.5 27.5 24.5C25.8431 24.5 24.5 25.8431 24.5 27.5C24.5 29.1569 25.8431 30.5 27.5 30.5V32C25.0147 32 23 29.9853 23 27.5C23 25.0147 25.0147 23 27.5 23C29.9853 23 32 25.0147 32 27.5C32 29.9853 29.9853 32 27.5 32V30.5C29.1569 30.5 30.5 29.1569 30.5 27.5Z" fill="black"/>
<path d="M15.5 27.5C15.5 25.8431 14.1569 24.5 12.5 24.5C10.8431 24.5 9.5 25.8431 9.5 27.5C9.5 29.1569 10.8431 30.5 12.5 30.5V32C10.0147 32 8 29.9853 8 27.5C8 25.0147 10.0147 23 12.5 23C14.9853 23 17 25.0147 17 27.5C17 29.9853 14.9853 32 12.5 32V30.5C14.1569 30.5 15.5 29.1569 15.5 27.5Z" fill="black"/>
</svg>
