<svg width="24" height="24" viewBox="0 0 24 24" fill="none" xmlns="http://www.w3.org/2000/svg">
<path d="M19 12C19 8.13401 15.866 5 12 5C8.13401 5 5 8.13401 5 12C5 15.866 8.13401 19 12 19V20C7.58172 20 4 16.4183 4 12C4 7.58172 7.58172 4 12 4C16.4183 4 20 7.58172 20 12C20 16.4183 16.4183 20 12 20V19C15.866 19 19 15.866 19 12Z" fill="black"/>
<path d="M11.25 9.5C11.25 8.5335 10.4665 7.75 9.5 7.75C8.5335 7.75 7.75 8.5335 7.75 9.5C7.75 10.4665 8.5335 11.25 9.5 11.25V12C8.11929 12 7 10.8807 7 9.5C7 8.11929 8.11929 7 9.5 7C10.8807 7 12 8.11929 12 9.5C12 10.8807 10.8807 12 9.5 12V11.25C10.4665 11.25 11.25 10.4665 11.25 9.5Z" fill="black"/>
<path d="M16.25 10C16.25 9.30964 15.6904 8.75 15 8.75C14.3096 8.75 13.75 9.30964 13.75 10C13.75 10.6904 14.3096 11.25 15 11.25V12C13.8954 12 13 11.1046 13 10C13 8.89543 13.8954 8 15 8C16.1046 8 17 8.89543 17 10C17 11.1046 16.1046 12 15 12V11.25C15.6904 11.25 16.25 10.6904 16.25 10Z" fill="black"/>
<path d="M11.25 15C11.25 14.3096 10.6904 13.75 10 13.75C9.30964 13.75 8.75 14.3096 8.75 15C8.75 15.6904 9.30964 16.25 10 16.25V17C8.89543 17 8 16.1046 8 15C8 13.8954 8.89543 13 10 13C11.1046 13 12 13.8954 12 15C12 16.1046 11.1046 17 10 17V16.25C10.6904 16.25 11.25 15.6904 11.25 15Z" fill="black"/>
<path d="M15.25 14.5C15.25 14.0858 14.9142 13.75 14.5 13.75C14.0858 13.75 13.75 14.0858 13.75 14.5C13.75 14.9142 14.0858 15.25 14.5 15.25V16C13.6716 16 13 15.3284 13 14.5C13 13.6716 13.6716 13 14.5 13C15.3284 13 16 13.6716 16 14.5C16 15.3284 15.3284 16 14.5 16V15.25C14.9142 15.25 15.25 14.9142 15.25 14.5Z" fill="black"/>
</svg>
