<svg width="40" height="40" viewBox="0 0 40 40" fill="none" xmlns="http://www.w3.org/2000/svg">
<path d="M25.0312 26.1071L26.1024 25.0366L32 30.9296L30.9287 32L25.0312 26.1071Z" fill="black"/>
<path d="M26.75 18.125C26.75 13.3615 22.8885 9.5 18.125 9.5C13.3615 9.5 9.5 13.3615 9.5 18.125C9.5 22.8885 13.3615 26.75 18.125 26.75V28.25C12.5331 28.25 8 23.7169 8 18.125C8 12.5331 12.5331 8 18.125 8C23.7169 8 28.25 12.5331 28.25 18.125C28.25 23.7169 23.7169 28.25 18.125 28.25V26.75C22.8885 26.75 26.75 22.8885 26.75 18.125Z" fill="black"/>
</svg>
