<svg width="24" height="24" viewBox="0 0 24 24" fill="none" xmlns="http://www.w3.org/2000/svg">
<path d="M10.5 20L10.3994 19.9902C10.2039 19.9503 10.0497 19.7961 10.0098 19.6006L10 19.5V18.334C9.99996 18.157 9.90636 17.9957 9.75781 17.9062L9.69141 17.8721L9.48047 17.7852C9.29363 17.7078 9.07855 17.7506 8.93555 17.8936L8.11133 18.7178L8.03223 18.7812C7.86587 18.8911 7.64877 18.8911 7.48242 18.7812L7.40332 18.7178L5.28223 16.5967C5.08696 16.4014 5.08696 16.0839 5.28223 15.8887L6.10645 15.0645C6.24944 14.9215 6.29223 14.7064 6.21484 14.5195L6.12793 14.3086C6.06016 14.145 5.91181 14.0316 5.74023 14.0059L5.66602 14V13C6.23481 13 6.75131 13.3212 7.00488 13.8232L7.05176 13.9258L7.13965 14.1367C7.37175 14.6971 7.24316 15.3425 6.81445 15.7715L6.34277 16.2422L7.75684 17.6562L8.22852 17.1855L8.31152 17.1094C8.70947 16.7672 9.25822 16.6574 9.75684 16.8213L9.86328 16.8604L10.0742 16.9482C10.6346 17.1804 11 17.7274 11 18.334V19H13V18.334C13 17.7274 13.3654 17.1804 13.9258 16.9482L14.1367 16.8604C14.6971 16.6283 15.3425 16.7568 15.7715 17.1855L16.2422 17.6562L17.6562 16.2422L17.1855 15.7715C16.7568 15.3425 16.6283 14.6971 16.8604 14.1367L16.9482 13.9258C17.1804 13.3654 17.7274 13 18.334 13V14C18.1318 14 17.9495 14.1218 17.8721 14.3086L17.7852 14.5195C17.7078 14.7064 17.7506 14.9215 17.8936 15.0645L18.7178 15.8887C18.913 16.0839 18.913 16.4014 18.7178 16.5967L16.5967 18.7178L16.5176 18.7812C16.3512 18.8911 16.1341 18.8911 15.9678 18.7812L15.8887 18.7178L15.0645 17.8936C14.9215 17.7506 14.7064 17.7078 14.5195 17.7852L14.3086 17.8721C14.1218 17.9495 14 18.1318 14 18.334V19.5L13.9902 19.6006C13.9437 19.8286 13.7417 20 13.5 20H10.5ZM14 5.66602C14 5.8682 14.1218 6.05055 14.3086 6.12793L14.5195 6.21484C14.7064 6.29223 14.9215 6.24944 15.0645 6.10645L15.8887 5.28223C16.0839 5.08696 16.4014 5.08696 16.5967 5.28223L18.7178 7.4043C18.9127 7.59959 18.9129 7.91619 18.7178 8.11133L17.8936 8.93555C17.7506 9.07855 17.7078 9.29363 17.7852 9.48047L17.8721 9.69141C17.9495 9.8782 18.1318 9.99996 18.334 10H19.5C19.7761 10 20 10.2239 20 10.5V13.5L19.9902 13.6006C19.9503 13.7961 19.7961 13.9503 19.6006 13.9902L19.5 14H18.334V13H19V11H18.334C17.7274 11 17.1804 10.6346 16.9482 10.0742L16.8604 9.86328C16.6282 9.30293 16.7568 8.65752 17.1855 8.22852L17.6562 7.75684L16.2422 6.34277L15.7715 6.81445C15.3425 7.24316 14.6971 7.37175 14.1367 7.13965L13.9258 7.05176C13.3654 6.81957 13 6.27262 13 5.66602V5H11V5.66602C11 6.27261 10.6346 6.81956 10.0742 7.05176L9.86328 7.13965C9.30293 7.37175 8.65751 7.24316 8.22852 6.81445L7.75684 6.34277L6.34277 7.75684L6.81445 8.22852C7.24316 8.65751 7.37175 9.30293 7.13965 9.86328L7.05176 10.0742C6.81956 10.6346 6.27261 11 5.66602 11H5V13H5.66602V14H4.5C4.22386 14 4 13.7761 4 13.5V10.5C4 10.2583 4.17145 10.0563 4.39941 10.0098L4.5 10H5.66602L5.74023 9.99414C5.8874 9.97204 6.01698 9.88528 6.09375 9.75781L6.12793 9.69141L6.21484 9.48047C6.28252 9.31708 6.25902 9.13167 6.15625 8.99219L6.10645 8.93555L5.28223 8.11133C5.08696 7.91607 5.08696 7.59858 5.28223 7.40332L7.40332 5.28223C7.59858 5.08696 7.91607 5.08696 8.11133 5.28223L8.93555 6.10645C9.06073 6.23163 9.24083 6.28009 9.40918 6.23828L9.48047 6.21484L9.69141 6.12793C9.85499 6.06016 9.96838 5.91181 9.99414 5.74023L10 5.66602V4.5C10 4.25828 10.1714 4.05629 10.3994 4.00977L10.5 4H13.5C13.7761 4.00001 14 4.22386 14 4.5V5.66602Z" fill="black"/>
<path d="M15 12C15 10.3431 13.6569 9 12 9C10.3431 9 9 10.3431 9 12C9 13.6569 10.3431 15 12 15V16C9.79086 16 8 14.2091 8 12C8 9.79086 9.79086 8 12 8C14.2091 8 16 9.79086 16 12C16 14.2091 14.2091 16 12 16V15C13.6569 15 15 13.6569 15 12Z" fill="black"/>
</svg>
