<svg width="40" height="40" viewBox="0 0 40 40" fill="none" xmlns="http://www.w3.org/2000/svg">
<path d="M29.1449 17.1759C29.8131 16.4213 30.1341 15.4507 30.1201 14.4303L26.5621 16.9662L21.2623 12.2721L23.5363 8.96407C22.6624 9.12908 21.8741 9.54862 21.2847 10.214C19.6964 12.0072 20.0555 15.0521 22.273 17.0162L21.2416 18.1807C18.4381 15.6975 17.818 11.7853 19.7767 9.29092L19.9747 9.05365C21.5595 7.2645 24.1516 6.80415 26.5595 7.65226L23.4681 12.1478L26.5248 14.8552L31.0508 11.6303C32.1835 13.9181 32.0395 16.5468 30.4549 18.3362L30.2433 18.5614C28.0037 20.8069 24.0452 20.6638 21.2416 18.1807L22.273 17.0162C24.4905 18.9803 27.5566 18.969 29.1449 17.1759Z" fill="black"/>
<path d="M14.2455 31.1383C13.5406 32.0454 12.1948 32.1603 11.2012 31.4377L11.0077 31.2816L12.0665 30.0861C12.2863 30.2807 12.597 30.2925 12.7973 30.1306L12.876 30.0503L21.6931 18.7019L20.6697 17.7954L10.4692 27.9185C10.2517 28.1343 10.2801 28.5038 10.5314 28.7264L9.47253 29.9218L9.29418 29.7486C8.51264 28.9095 8.41792 27.6771 9.07176 26.8586L9.22374 26.6904L20.4935 15.5062L23.987 18.6003L14.2455 31.1383ZM12.0665 30.0861L11.0077 31.2816L9.47253 29.9218L10.5314 28.7264L12.0665 30.0861Z" fill="black"/>
</svg>
