<svg width="24" height="24" viewBox="0 0 24 24" fill="none" xmlns="http://www.w3.org/2000/svg">
<path d="M19.0572 10.2495C19.5479 9.69892 19.7835 8.99074 19.7733 8.24612L17.1608 10.0966L13.2694 6.67134L14.9391 4.25754C14.2974 4.37795 13.7186 4.68408 13.2858 5.16956C12.1196 6.47802 12.3833 8.69988 14.0115 10.133L13.2542 10.9827C11.1957 9.17083 10.7404 6.31611 12.1786 4.49604L12.3239 4.3229C13.4876 3.0174 15.3909 2.68149 17.1589 3.30034L14.889 6.58067L17.1334 8.55621L20.4567 6.20301C21.2883 7.87242 21.1826 9.79054 20.0191 11.0962L19.8637 11.2605C18.2193 12.899 15.3127 12.7946 13.2542 10.9827L14.0115 10.133C15.6397 11.5662 17.891 11.558 19.0572 10.2495Z" fill="black"/>
<path d="M8.11725 20.4376C7.59966 21.0995 6.61148 21.1834 5.88196 20.6561L5.73988 20.5422L6.51733 19.6699C6.67868 19.8119 6.90684 19.8205 7.05388 19.7023L7.11168 19.6437L13.5857 11.363L12.8343 10.7016L5.34444 18.0882C5.18479 18.2457 5.20565 18.5153 5.39011 18.6777L4.61265 19.55L4.4817 19.4236C3.90785 18.8113 3.8383 17.9121 4.31838 17.3148L4.42998 17.1921L12.7049 9.03114L15.27 11.2889L8.11725 20.4376ZM6.51733 19.6699L5.73988 20.5422L4.61265 19.55L5.39011 18.6777L6.51733 19.6699Z" fill="black"/>
</svg>
