<svg width="40" height="40" viewBox="0 0 40 40" fill="none" xmlns="http://www.w3.org/2000/svg">
<path d="M24.019 29C23.8975 29 23.803 28.9526 23.7354 28.8578C23.6679 28.7765 23.6409 28.6749 23.6544 28.5529L23.7152 28.2684C23.7422 28.1465 23.8097 28.0381 23.9177 27.9433C24.0122 27.862 24.1068 27.8214 24.2013 27.8214C24.7683 27.8214 25.2747 27.6859 25.7202 27.415C26.1658 27.1576 26.5776 26.7105 26.9556 26.0738C27.3337 25.4506 27.6915 24.6039 28.029 23.5337C28.3666 22.4635 28.7041 21.1223 29.0417 19.5102C29.3792 17.898 29.6088 16.5569 29.7303 15.4866C29.8518 14.4164 29.8586 13.5697 29.7505 12.9465C29.6425 12.3098 29.4197 11.856 29.0822 11.585C28.7446 11.3141 28.2923 11.1786 27.7253 11.1786C27.6307 11.1786 27.5497 11.138 27.4822 11.0567C27.4282 10.9619 27.4147 10.8535 27.4417 10.7316L27.5025 10.4471C27.5295 10.3251 27.5902 10.2235 27.6847 10.1422C27.7928 10.0474 27.9075 10 28.029 10C28.6771 10 29.2105 10.1219 29.629 10.3658C30.0476 10.5961 30.3649 10.9619 30.5809 11.4631C30.8104 11.9508 30.9455 12.574 30.986 13.3326C31.0265 14.0777 30.9792 14.9651 30.8442 15.9947C30.7092 17.0242 30.5066 18.1961 30.2366 19.5102C29.8856 21.1494 29.5278 22.5718 29.1632 23.7775C28.8122 24.9697 28.4071 25.9519 27.948 26.7241C27.5025 27.4963 26.9624 28.0652 26.3278 28.431C25.6932 28.8103 24.9236 29 24.019 29Z" fill="black"/>
<path d="M15.1416 25.769C14.9661 25.769 14.8446 25.6877 14.7771 25.5251C14.6961 25.3626 14.7231 25.2136 14.8581 25.0781L19.5162 20.3637L16.9644 15.8321C16.8969 15.7102 16.8901 15.5747 16.9441 15.4257C16.9981 15.2767 17.1129 15.2022 17.2884 15.2022H17.6732C17.8082 15.2022 17.9095 15.236 17.977 15.3038C18.058 15.3715 18.1188 15.4392 18.1593 15.507L20.4276 19.5508L24.4377 15.507C24.5052 15.4392 24.5794 15.3715 24.6605 15.3038C24.755 15.236 24.9035 15.2022 25.106 15.2022H25.4301C25.5786 15.1886 25.7001 15.2631 25.7946 15.4257C25.8891 15.5883 25.8554 15.7508 25.6933 15.9134L21.0555 20.6278L23.5668 25.1391C23.6478 25.2745 23.6613 25.4168 23.6073 25.5658C23.5668 25.7013 23.452 25.769 23.263 25.769H22.8782C22.7432 25.769 22.6352 25.7351 22.5542 25.6674C22.4731 25.5997 22.4124 25.5319 22.3719 25.4642L20.1238 21.461L16.1745 25.4642C16.1205 25.5184 16.0463 25.5861 15.9517 25.6674C15.8572 25.7351 15.7087 25.769 15.5062 25.769H15.1416Z" fill="black"/>
<path d="M12.9709 29C12.3228 29 11.7895 28.8781 11.371 28.6342C10.9524 28.4039 10.6284 28.0381 10.3988 27.5369C10.1828 27.0492 10.0545 26.4328 10.014 25.6877C9.97352 24.9291 10.0208 24.0349 10.1558 23.0053C10.2908 21.9758 10.4933 20.8039 10.7634 19.4898C11.1144 17.8506 11.4655 16.4349 11.8165 15.2428C12.1811 14.0371 12.5861 13.0481 13.0317 12.2759C13.4908 11.5037 14.0376 10.9348 14.6722 10.569C15.3068 10.1897 16.0764 10 16.981 10C17.1025 10 17.197 10.0474 17.2645 10.1422C17.3455 10.2235 17.3725 10.3251 17.3455 10.4471L17.2848 10.7316C17.2578 10.8535 17.1903 10.9619 17.0823 11.0567C16.9877 11.138 16.8932 11.1786 16.7987 11.1786C16.2316 11.1786 15.7253 11.3141 15.2798 11.585C14.8342 11.8424 14.4224 12.2895 14.0443 12.9262C13.6663 13.5494 13.3085 14.3961 12.9709 15.4663C12.6469 16.5365 12.3093 17.8777 11.9583 19.4898C11.6207 21.102 11.3912 22.4431 11.2697 23.5134C11.1482 24.5836 11.1414 25.4303 11.2494 26.0535C11.3575 26.6902 11.5802 27.144 11.9178 27.415C12.2553 27.6859 12.7076 27.8214 13.2747 27.8214C13.3692 27.8214 13.4435 27.862 13.4975 27.9433C13.565 28.0381 13.5853 28.1465 13.5583 28.2684L13.4975 28.5529C13.484 28.6749 13.4232 28.7765 13.3152 28.8578C13.2072 28.9526 13.0925 29 12.9709 29Z" fill="black"/>
</svg>
