<svg width="29" height="32" viewBox="0 0 29 32" fill="none" xmlns="http://www.w3.org/2000/svg">
<path d="M28 8.52885L14.5 1L1 8.52885V23.5865L14.5 31.1154L28 23.5865V8.52885Z" stroke="url(#paint0_linear_2300_217)" stroke-opacity="0.8" stroke-width="1.5" stroke-linecap="square"/>
<path d="M4.4876 21.2308V11.6108H6.0996V21.2308H4.4876ZM8.29142 21.2308V12.6378H9.89042V21.2308H8.29142ZM6.93942 15.8618V14.3798H11.3854V15.8618H6.93942ZM14.9057 21.3608C14.299 21.3608 13.753 21.2091 13.2677 20.9058C12.791 20.5938 12.4097 20.1734 12.1237 19.6448C11.8463 19.1074 11.7077 18.4921 11.7077 17.7988C11.7077 17.1141 11.8463 16.5031 12.1237 15.9658C12.401 15.4284 12.778 15.0081 13.2547 14.7048C13.74 14.3928 14.286 14.2368 14.8927 14.2368C15.222 14.2368 15.5383 14.2888 15.8417 14.3928C16.1537 14.4968 16.431 14.6398 16.6737 14.8218C16.9163 14.9951 17.107 15.1901 17.2457 15.4068C17.393 15.6234 17.4753 15.8488 17.4927 16.0828L17.0637 16.1348V11.6108H18.6627V21.2308H17.1157L17.0767 19.6188L17.3887 19.6448C17.38 19.8614 17.302 20.0694 17.1547 20.2688C17.016 20.4681 16.834 20.6501 16.6087 20.8148C16.3833 20.9794 16.119 21.1138 15.8157 21.2178C15.521 21.3131 15.2177 21.3608 14.9057 21.3608ZM15.2177 20.0088C15.5903 20.0088 15.9197 19.9134 16.2057 19.7228C16.4917 19.5321 16.7127 19.2721 16.8687 18.9428C17.0333 18.6134 17.1157 18.2321 17.1157 17.7988C17.1157 17.3741 17.0333 16.9971 16.8687 16.6678C16.7127 16.3298 16.4917 16.0698 16.2057 15.8878C15.9197 15.6971 15.5903 15.6018 15.2177 15.6018C14.845 15.6018 14.5157 15.6971 14.2297 15.8878C13.9437 16.0698 13.7183 16.3298 13.5537 16.6678C13.3977 16.9971 13.3197 17.3741 13.3197 17.7988C13.3197 18.2321 13.3977 18.6134 13.5537 18.9428C13.7183 19.2721 13.9437 19.5321 14.2297 19.7228C14.5157 19.9134 14.845 20.0088 15.2177 20.0088ZM22.3758 21.3608C21.7691 21.3608 21.2231 21.2611 20.7378 21.0618C20.2611 20.8538 19.8711 20.5591 19.5678 20.1778L20.6078 19.2808C20.8678 19.5754 21.1581 19.7878 21.4788 19.9178C21.7995 20.0478 22.1375 20.1128 22.4928 20.1128C22.6401 20.1128 22.7701 20.0954 22.8828 20.0608C23.0041 20.0261 23.1081 19.9741 23.1948 19.9048C23.2815 19.8354 23.3465 19.7574 23.3898 19.6708C23.4418 19.5754 23.4678 19.4714 23.4678 19.3588C23.4678 19.1508 23.3898 18.9861 23.2338 18.8648C23.1471 18.8041 23.0085 18.7391 22.8178 18.6698C22.6358 18.6004 22.3975 18.5311 22.1028 18.4618C21.6348 18.3404 21.2448 18.2018 20.9328 18.0458C20.6208 17.8811 20.3781 17.6991 20.2048 17.4998C20.0575 17.3351 19.9448 17.1488 19.8668 16.9408C19.7975 16.7328 19.7628 16.5074 19.7628 16.2648C19.7628 15.9614 19.8278 15.6884 19.9578 15.4458C20.0965 15.1944 20.2828 14.9778 20.5168 14.7958C20.7508 14.6138 21.0238 14.4751 21.3358 14.3798C21.6478 14.2844 21.9728 14.2368 22.3108 14.2368C22.6575 14.2368 22.9911 14.2801 23.3118 14.3668C23.6411 14.4534 23.9445 14.5791 24.2218 14.7438C24.5078 14.8998 24.7505 15.0904 24.9498 15.3158L24.0658 16.2908C23.9011 16.1348 23.7191 15.9961 23.5198 15.8748C23.3291 15.7534 23.1341 15.6581 22.9348 15.5888C22.7355 15.5108 22.5491 15.4718 22.3758 15.4718C22.2111 15.4718 22.0638 15.4891 21.9338 15.5238C21.8038 15.5498 21.6955 15.5931 21.6088 15.6538C21.5221 15.7144 21.4528 15.7924 21.4008 15.8878C21.3575 15.9744 21.3358 16.0784 21.3358 16.1998C21.3445 16.3038 21.3705 16.4034 21.4138 16.4988C21.4658 16.5854 21.5351 16.6591 21.6218 16.7198C21.7171 16.7804 21.8601 16.8498 22.0508 16.9278C22.2415 17.0058 22.4885 17.0794 22.7918 17.1488C23.2165 17.2614 23.5718 17.3871 23.8578 17.5258C24.1438 17.6644 24.3691 17.8248 24.5338 18.0068C24.6985 18.1628 24.8155 18.3448 24.8848 18.5528C24.9541 18.7608 24.9888 18.9904 24.9888 19.2418C24.9888 19.6491 24.8718 20.0131 24.6378 20.3338C24.4125 20.6544 24.1005 20.9058 23.7018 21.0878C23.3118 21.2698 22.8698 21.3608 22.3758 21.3608Z" fill="white"/>
<defs>
<linearGradient id="paint0_linear_2300_217" x1="14.5" y1="1" x2="14.5" y2="31.1154" gradientUnits="userSpaceOnUse">
<stop stop-color="#E2A304"/>
<stop offset="1" stop-color="#3672E5"/>
</linearGradient>
</defs>
</svg>
