<svg width="26" height="30" viewBox="0 0 26 30" fill="none" xmlns="http://www.w3.org/2000/svg">
<path d="M7.99023 24L3.99023 21.6338V13L7.99023 8.5V24ZM5.49023 13.5693V21L6.49023 21.6338V12.4443L5.49023 13.5693Z" fill="black"/>
<path d="M17.9902 24L21.9902 21.6338V13L17.9902 8.5V24ZM20.4902 13.5693L20.5 21L19.4902 21.6338V12.4443L20.4902 13.5693Z" fill="black"/>
<path d="M16.7402 12.75V24.75L15.2402 25.65V12.75H10.7402V25.65L9.24023 24.75V12.75H16.7402ZM13.7402 14V26.55L12.9902 27L12.2402 26.55V14H13.7402Z" fill="black"/>
<path d="M15.2402 7.8291L12.9902 5.16211L10.7402 7.8291V11.25H15.2402V7.8291ZM16.7402 12.75H9.24023V7.28125L9.41699 7.07227L12.9902 2.83691L16.5635 7.07227L16.7402 7.28125V12.75Z" fill="black"/>
<path d="M25.9805 7.5V22.5L12.9902 30L0 22.5V7.5L12.9902 0L25.9805 7.5ZM1.5 8.36523V21.6338L12.9902 28.2676L24.4805 21.6338V8.36523L12.9902 1.73145L1.5 8.36523Z" fill="black"/>
</svg>
